<svg id="visual" viewBox="0 0 1920 1080" width="1920" height="1080" xmlns="http://www.w3.org/2000/svg" xmlns:xlink="http://www.w3.org/1999/xlink" version="1.1"><rect x="0" y="0" width="1920" height="1080" fill="#001220"></rect><defs><linearGradient id="grad1_0" x1="43.8%" y1="0%" x2="100%" y2="100%"><stop offset="14.444444444444446%" stop-color="#fbae3c" stop-opacity="1"></stop><stop offset="85.55555555555554%" stop-color="#fbae3c" stop-opacity="1"></stop></linearGradient></defs><defs><linearGradient id="grad1_1" x1="43.8%" y1="0%" x2="100%" y2="100%"><stop offset="14.444444444444446%" stop-color="#fbae3c" stop-opacity="1"></stop><stop offset="85.55555555555554%" stop-color="#96446e" stop-opacity="1"></stop></linearGradient></defs><defs><linearGradient id="grad1_2" x1="43.8%" y1="0%" x2="100%" y2="100%"><stop offset="14.444444444444446%" stop-color="#001220" stop-opacity="1"></stop><stop offset="85.55555555555554%" stop-color="#96446e" stop-opacity="1"></stop></linearGradient></defs><defs><linearGradient id="grad2_0" x1="0%" y1="0%" x2="56.3%" y2="100%"><stop offset="14.444444444444446%" stop-color="#fbae3c" stop-opacity="1"></stop><stop offset="85.55555555555554%" stop-color="#fbae3c" stop-opacity="1"></stop></linearGradient></defs><defs><linearGradient id="grad2_1" x1="0%" y1="0%" x2="56.3%" y2="100%"><stop offset="14.444444444444446%" stop-color="#96446e" stop-opacity="1"></stop><stop offset="85.55555555555554%" stop-color="#fbae3c" stop-opacity="1"></stop></linearGradient></defs><defs><linearGradient id="grad2_2" x1="0%" y1="0%" x2="56.3%" y2="100%"><stop offset="14.444444444444446%" stop-color="#96446e" stop-opacity="1"></stop><stop offset="85.55555555555554%" stop-color="#001220" stop-opacity="1"></stop></linearGradient></defs><g transform="translate(1920, 0)"><path d="M0 972C-111.6 904.3 -223.3 836.5 -322.6 778.8C-421.9 721.2 -509 673.6 -612.4 612.4C-715.7 551.1 -835.4 476.3 -898 372C-960.7 267.6 -966.3 133.8 -972 0L0 0Z" fill="#3d3056"></path><path d="M0 648C-74.4 602.8 -148.8 557.7 -215.1 519.2C-281.3 480.8 -339.3 449 -408.2 408.2C-477.1 367.4 -556.9 317.5 -598.7 248C-640.4 178.4 -644.2 89.2 -648 0L0 0Z" fill="#e1685e"></path><path d="M0 324C-37.2 301.4 -74.4 278.8 -107.5 259.6C-140.6 240.4 -169.7 224.5 -204.1 204.1C-238.6 183.7 -278.5 158.8 -299.3 124C-320.2 89.2 -322.1 44.6 -324 0L0 0Z" fill="#fbae3c"></path></g><g transform="translate(0, 1080)"><path d="M0 -972C93.8 -880.3 187.6 -788.7 313 -755.7C438.5 -722.8 595.7 -748.6 687.3 -687.3C779 -626 805.1 -477.7 841.7 -348.6C878.2 -219.6 925.1 -109.8 972 0L0 0Z" fill="#3d3056"></path><path d="M0 -648C62.5 -586.9 125 -525.8 208.7 -503.8C292.3 -481.9 397.1 -499.1 458.2 -458.2C519.3 -417.4 536.7 -318.5 561.1 -232.4C585.5 -146.4 616.7 -73.2 648 0L0 0Z" fill="#e1685e"></path><path d="M0 -324C31.3 -293.4 62.5 -262.9 104.3 -251.9C146.2 -240.9 198.6 -249.5 229.1 -229.1C259.7 -208.7 268.4 -159.2 280.6 -116.2C292.7 -73.2 308.4 -36.6 324 0L0 0Z" fill="#fbae3c"></path></g></svg>