<svg id="visual" viewBox="0 0 1920 1080" width="1920" height="1080" xmlns="http://www.w3.org/2000/svg" xmlns:xlink="http://www.w3.org/1999/xlink" version="1.1"><rect x="0" y="0" width="1920" height="1080" fill="#001220"></rect><defs><linearGradient id="grad1_0" x1="43.8%" y1="100%" x2="100%" y2="0%"><stop offset="14.444444444444446%" stop-color="#fbae3c" stop-opacity="1"></stop><stop offset="85.55555555555554%" stop-color="#fbae3c" stop-opacity="1"></stop></linearGradient></defs><defs><linearGradient id="grad1_1" x1="43.8%" y1="100%" x2="100%" y2="0%"><stop offset="14.444444444444446%" stop-color="#fbae3c" stop-opacity="1"></stop><stop offset="85.55555555555554%" stop-color="#96446e" stop-opacity="1"></stop></linearGradient></defs><defs><linearGradient id="grad1_2" x1="43.8%" y1="100%" x2="100%" y2="0%"><stop offset="14.444444444444446%" stop-color="#001220" stop-opacity="1"></stop><stop offset="85.55555555555554%" stop-color="#96446e" stop-opacity="1"></stop></linearGradient></defs><defs><linearGradient id="grad2_0" x1="0%" y1="100%" x2="56.3%" y2="0%"><stop offset="14.444444444444446%" stop-color="#fbae3c" stop-opacity="1"></stop><stop offset="85.55555555555554%" stop-color="#fbae3c" stop-opacity="1"></stop></linearGradient></defs><defs><linearGradient id="grad2_1" x1="0%" y1="100%" x2="56.3%" y2="0%"><stop offset="14.444444444444446%" stop-color="#96446e" stop-opacity="1"></stop><stop offset="85.55555555555554%" stop-color="#fbae3c" stop-opacity="1"></stop></linearGradient></defs><defs><linearGradient id="grad2_2" x1="0%" y1="100%" x2="56.3%" y2="0%"><stop offset="14.444444444444446%" stop-color="#96446e" stop-opacity="1"></stop><stop offset="85.55555555555554%" stop-color="#001220" stop-opacity="1"></stop></linearGradient></defs><g transform="translate(1920, 1080)"><path d="M-972 0C-904.3 -111.6 -836.5 -223.3 -778.8 -322.6C-721.2 -421.9 -673.6 -509 -612.4 -612.4C-551.1 -715.7 -476.3 -835.4 -372 -898C-267.6 -960.7 -133.8 -966.3 0 -972L0 0Z" fill="#3d3056"></path><path d="M-648 0C-602.8 -74.4 -557.7 -148.8 -519.2 -215.1C-480.8 -281.3 -449 -339.3 -408.2 -408.2C-367.4 -477.1 -317.5 -556.9 -248 -598.7C-178.4 -640.4 -89.2 -644.2 0 -648L0 0Z" fill="#e1685e"></path><path d="M-324 0C-301.4 -37.2 -278.8 -74.4 -259.6 -107.5C-240.4 -140.6 -224.5 -169.7 -204.1 -204.1C-183.7 -238.6 -158.8 -278.5 -124 -299.3C-89.2 -320.2 -44.6 -322.1 0 -324L0 0Z" fill="#fbae3c"></path></g><g transform="translate(0, 0)"><path d="M972 0C880.3 93.8 788.7 187.6 755.7 313C722.8 438.5 748.6 595.7 687.3 687.3C626 779 477.7 805.1 348.6 841.7C219.6 878.2 109.8 925.1 0 972L0 0Z" fill="#3d3056"></path><path d="M648 0C586.9 62.5 525.8 125 503.8 208.7C481.9 292.3 499.1 397.1 458.2 458.2C417.4 519.3 318.5 536.7 232.4 561.1C146.4 585.5 73.2 616.7 0 648L0 0Z" fill="#e1685e"></path><path d="M324 0C293.4 31.3 262.9 62.5 251.9 104.3C240.9 146.2 249.5 198.6 229.1 229.1C208.7 259.7 159.2 268.4 116.2 280.6C73.2 292.7 36.6 308.4 0 324L0 0Z" fill="#fbae3c"></path></g></svg>