<svg id="visual" viewBox="0 0 1920 1080" width="1920" height="1080" xmlns="http://www.w3.org/2000/svg" xmlns:xlink="http://www.w3.org/1999/xlink" version="1.1"><rect x="0" y="0" width="1920" height="1080" fill="#931C1C"></rect><path d="M0 526L274 644L549 530L823 533L1097 522L1371 541L1646 508L1920 544L1920 1081L1646 1081L1371 1081L1097 1081L823 1081L549 1081L274 1081L0 1081Z" fill="#f5730a"></path><path d="M0 708L274 638L549 693L823 721L1097 732L1371 688L1646 745L1920 697L1920 1081L1646 1081L1371 1081L1097 1081L823 1081L549 1081L274 1081L0 1081Z" fill="#da5b09"></path><path d="M0 753L274 832L549 805L823 727L1097 777L1371 799L1646 722L1920 746L1920 1081L1646 1081L1371 1081L1097 1081L823 1081L549 1081L274 1081L0 1081Z" fill="#be4407"></path><path d="M0 889L274 888L549 849L823 903L1097 869L1371 862L1646 847L1920 898L1920 1081L1646 1081L1371 1081L1097 1081L823 1081L549 1081L274 1081L0 1081Z" fill="#a32d04"></path><path d="M0 1000L274 957L549 961L823 1022L1097 917L1371 928L1646 962L1920 932L1920 1081L1646 1081L1371 1081L1097 1081L823 1081L549 1081L274 1081L0 1081Z" fill="#871400"></path></svg>