<svg id="visual" viewBox="0 0 1920 1080" width="1920" height="1080" xmlns="http://www.w3.org/2000/svg" xmlns:xlink="http://www.w3.org/1999/xlink" version="1.1"><rect x="0" y="0" width="1920" height="1080" fill="#931C1C"></rect><path d="M0 397L274 329L549 408L823 302L1097 270L1371 342L1646 391L1920 383L1920 0L1646 0L1371 0L1097 0L823 0L549 0L274 0L0 0Z" fill="#f5730a"></path><path d="M0 241L274 244L549 325L823 322L1097 300L1371 314L1646 285L1920 233L1920 0L1646 0L1371 0L1097 0L823 0L549 0L274 0L0 0Z" fill="#da5b09"></path><path d="M0 236L274 249L549 250L823 259L1097 191L1371 206L1646 290L1920 205L1920 0L1646 0L1371 0L1097 0L823 0L549 0L274 0L0 0Z" fill="#be4407"></path><path d="M0 113L274 125L549 167L823 124L1097 142L1371 131L1646 180L1920 163L1920 0L1646 0L1371 0L1097 0L823 0L549 0L274 0L0 0Z" fill="#a32d04"></path><path d="M0 50L274 89L549 89L823 67L1097 50L1371 114L1646 78L1920 117L1920 0L1646 0L1371 0L1097 0L823 0L549 0L274 0L0 0Z" fill="#871400"></path></svg>